<svg width="378" height="56" viewBox="0 0 378 56" fill="none" xmlns="http://www.w3.org/2000/svg">
<path d="M4.66797 56C4.76172 55.1797 4.98438 54.4062 5.33594 53.6797C5.71094 52.9531 6.16797 52.3203 6.70703 51.7812C7.26953 51.2188 7.90234 50.7852 8.60547 50.4805C9.30859 50.1523 10.0469 49.9883 10.8203 49.9883H23.7227V41.4453L5.30078 32.2695C3.89453 31.5664 2.76953 30.5 1.92578 29.0703C1.08203 27.6406 0.660156 25.8594 0.660156 23.7266V11.6328C0.660156 10.3906 0.824219 9.23047 1.15234 8.15234C1.50391 7.05078 1.97266 6.10156 2.55859 5.30469C3.16797 4.48438 3.87109 3.85156 4.66797 3.40625C5.46484 2.9375 6.32031 2.70312 7.23438 2.70312H26.6758C27.5898 2.70312 28.4453 2.9375 29.2422 3.40625C30.0391 3.85156 30.7305 4.48438 31.3164 5.30469C31.9258 6.10156 32.4062 7.05078 32.7578 8.15234C33.1094 9.23047 33.2852 10.3906 33.2852 11.6328V22.0391H24.8828V8.71484H9.0625V25.3789L28.1172 35.1172C28.7266 35.4219 29.2773 35.8438 29.7695 36.3828C30.2617 36.9219 30.6836 37.5547 31.0352 38.2812C31.3867 38.9844 31.6562 39.7695 31.8438 40.6367C32.0312 41.5039 32.125 42.4062 32.125 43.3438V47.1406C32.125 48.3594 31.9492 49.5078 31.5977 50.5859C31.2461 51.6641 30.7656 52.6016 30.1562 53.3984C29.5703 54.1953 28.8789 54.8281 28.082 55.2969C27.2852 55.7656 26.4297 56 25.5156 56H4.66797ZM46.75 28.1211C46.75 26.8789 46.9258 25.7188 47.2773 24.6406C47.6289 23.5625 48.0977 22.625 48.6836 21.8281C49.293 21.0078 50.0078 20.3633 50.8281 19.8945C51.6484 19.4258 52.5156 19.1914 53.4297 19.1914H72.0977C73.0117 19.1914 73.8672 19.4258 74.6641 19.8945C75.4844 20.3633 76.1992 21.0078 76.8086 21.8281C77.418 22.625 77.8984 23.5625 78.25 24.6406C78.6016 25.7188 78.7773 26.8789 78.7773 28.1211V39.8281H55.1523V49.9883H80.957C80.8633 50.8086 80.6289 51.5938 80.2539 52.3438C79.9023 53.0703 79.4453 53.7031 78.8828 54.2422C78.3438 54.7812 77.7227 55.2148 77.0195 55.543C76.3164 55.8477 75.5781 56 74.8047 56H53.4297C52.5156 56 51.6484 55.7656 50.8281 55.2969C50.0078 54.8281 49.293 54.1953 48.6836 53.3984C48.0977 52.5781 47.6289 51.6289 47.2773 50.5508C46.9258 49.4727 46.75 48.3125 46.75 47.0703V28.1211ZM70.375 34.9062V25.2031H55.1523V34.9062H70.375ZM92.5938 19.1914H100.996V33.3242L109.539 21.8633C110.289 20.9727 111.062 20.3047 111.859 19.8594C112.68 19.3906 113.676 19.1562 114.848 19.1562C115.785 19.1562 116.676 19.3906 117.52 19.8594C118.387 20.3281 119.137 20.9727 119.77 21.793C120.426 22.5898 120.941 23.5273 121.316 24.6055C121.715 25.6836 121.914 26.8438 121.914 28.0859V32.0586L129.297 21.8633C130.047 20.9961 130.891 20.3281 131.828 19.8594C132.766 19.3906 133.809 19.1562 134.957 19.1562C135.895 19.1562 136.785 19.3906 137.629 19.8594C138.496 20.3281 139.246 20.9727 139.879 21.793C140.535 22.5898 141.051 23.5273 141.426 24.6055C141.824 25.6836 142.023 26.8438 142.023 28.0859V49.9883H148.281C148.188 50.8086 147.953 51.5938 147.578 52.3438C147.227 53.0703 146.77 53.7031 146.207 54.2422C145.668 54.7812 145.047 55.2148 144.344 55.543C143.641 55.8477 142.902 56 142.129 56H140.23C139.316 56 138.449 55.7656 137.629 55.2969C136.832 54.8281 136.141 54.1953 135.555 53.3984C134.969 52.5781 134.5 51.6289 134.148 50.5508C133.82 49.4727 133.656 48.3125 133.656 47.0703V25.9414L121.914 40.1797V56H113.512V25.9414L100.996 41.4102V56H92.5938V19.1914Z" fill="white"/>
<path d="M156.859 36.1367H148C148.07 35.293 148.281 34.5078 148.633 33.7812C148.984 33.0547 149.43 32.4219 149.969 31.8828C150.531 31.3438 151.164 30.9219 151.867 30.6172C152.594 30.2891 153.355 30.125 154.152 30.125H156.859V2.70312H181.539C182.477 2.70312 183.379 2.9375 184.246 3.40625C185.113 3.85156 185.875 4.48438 186.531 5.30469C187.211 6.10156 187.75 7.05078 188.148 8.15234C188.57 9.23047 188.781 10.3906 188.781 11.6328V24.7812C188.781 26.4922 188.395 28.0625 187.621 29.4922C186.848 30.9219 185.723 32.0703 184.246 32.9375C185.277 33.3125 186.168 33.8398 186.918 34.5195C187.668 35.1992 188.277 35.9492 188.746 36.7695C189.238 37.5898 189.602 38.4453 189.836 39.3359C190.07 40.2266 190.188 41.0703 190.188 41.8672V47.1406C190.188 48.3594 190.012 49.5078 189.66 50.5859C189.309 51.6641 188.816 52.6016 188.184 53.3984C187.574 54.1953 186.859 54.8281 186.039 55.2969C185.242 55.7656 184.387 56 183.473 56H156.859V36.1367ZM180.449 30.125V8.71484H165.191V30.125H180.449ZM181.785 49.9883V36.1367H165.191V49.9883H181.785ZM202.914 29.1055C202.914 27.6992 203.102 26.3867 203.477 25.168C203.875 23.9492 204.414 22.8945 205.094 22.0039C205.773 21.1133 206.57 20.4219 207.484 19.9297C208.422 19.4141 209.43 19.1562 210.508 19.1562H234.203V49.9883H241.832C241.738 50.8086 241.504 51.5938 241.129 52.3438C240.777 53.0703 240.32 53.7031 239.758 54.2422C239.219 54.7812 238.598 55.2148 237.895 55.543C237.191 55.8477 236.453 56 235.68 56H231.918C230.77 56 229.68 55.6133 228.648 54.8398C227.617 54.043 226.762 52.9766 226.082 51.6406C225.402 52.9766 224.547 54.043 223.516 54.8398C222.484 55.6133 221.395 56 220.246 56H209.594C208.68 56 207.812 55.7656 206.992 55.2969C206.172 54.8281 205.457 54.1953 204.848 53.3984C204.262 52.6016 203.793 51.6758 203.441 50.6211C203.09 49.543 202.914 48.3945 202.914 47.1758V29.1055ZM225.836 49.9883V25.2031H211.281V49.9883H225.836ZM248.969 19.1914H257.371V33.1133L268.234 21.8633C268.984 20.9961 269.758 20.3281 270.555 19.8594C271.375 19.3906 272.348 19.1562 273.473 19.1562C274.41 19.1562 275.312 19.3906 276.18 19.8594C277.047 20.3281 277.809 20.9727 278.465 21.793C279.121 22.5898 279.637 23.5273 280.012 24.6055C280.41 25.6836 280.609 26.8438 280.609 28.0859V49.9531H287.711C287.617 50.7969 287.383 51.582 287.008 52.3086C286.656 53.0352 286.199 53.6797 285.637 54.2422C285.098 54.7812 284.477 55.2148 283.773 55.543C283.07 55.8477 282.332 56 281.559 56H278.816C277.879 56 277 55.7656 276.18 55.2969C275.383 54.8281 274.68 54.1953 274.07 53.3984C273.484 52.5781 273.016 51.6289 272.664 50.5508C272.312 49.4727 272.137 48.3125 272.137 47.0703V25.6953L257.371 40.8828V56H248.969V19.1914ZM294.109 28.1211C294.109 26.8789 294.285 25.7188 294.637 24.6406C294.988 23.5625 295.457 22.625 296.043 21.8281C296.652 21.0078 297.367 20.3633 298.188 19.8945C299.008 19.4258 299.875 19.1914 300.789 19.1914H317.031V0.101562H325.398V49.9883H332.078C331.984 50.8086 331.75 51.5938 331.375 52.3438C331.023 53.0703 330.566 53.7031 330.004 54.2422C329.465 54.7812 328.844 55.2148 328.141 55.543C327.438 55.8477 326.699 56 325.926 56H317.031V52.168C316.398 53.3633 315.59 54.3008 314.605 54.9805C313.621 55.6602 312.578 56 311.477 56H300.789C299.875 56 299.008 55.7656 298.188 55.2969C297.367 54.8281 296.652 54.1953 296.043 53.3984C295.457 52.5781 294.988 51.6289 294.637 50.5508C294.285 49.4727 294.109 48.3125 294.109 47.0703V28.1211ZM317.031 49.9883V25.2031H302.477V49.9883H317.031ZM338.969 29.1055C338.969 27.6992 339.156 26.3867 339.531 25.168C339.93 23.9492 340.469 22.8945 341.148 22.0039C341.828 21.1133 342.625 20.4219 343.539 19.9297C344.477 19.4141 345.484 19.1562 346.562 19.1562H370.258V49.9883H377.887C377.793 50.8086 377.559 51.5938 377.184 52.3438C376.832 53.0703 376.375 53.7031 375.812 54.2422C375.273 54.7812 374.652 55.2148 373.949 55.543C373.246 55.8477 372.508 56 371.734 56H367.973C366.824 56 365.734 55.6133 364.703 54.8398C363.672 54.043 362.816 52.9766 362.137 51.6406C361.457 52.9766 360.602 54.043 359.57 54.8398C358.539 55.6133 357.449 56 356.301 56H345.648C344.734 56 343.867 55.7656 343.047 55.2969C342.227 54.8281 341.512 54.1953 340.902 53.3984C340.316 52.6016 339.848 51.6758 339.496 50.6211C339.145 49.543 338.969 48.3945 338.969 47.1758V29.1055ZM361.891 49.9883V25.2031H347.336V49.9883H361.891Z" fill="#C17E03"/>
</svg>
