<svg width="152" height="29" viewBox="0 0 152 29" fill="none" xmlns="http://www.w3.org/2000/svg">
<path d="M8.19531 10.4922C8.38281 10.293 8.55273 10.082 8.70508 9.85938C8.85742 9.625 8.93359 9.35547 8.93359 9.05078C8.93359 8.73438 8.875 8.45312 8.75781 8.20703C8.65234 7.94922 8.5 7.72656 8.30078 7.53906C7.84375 7.12891 7.35742 6.92383 6.8418 6.92383C6.32617 6.92383 5.91016 7 5.59375 7.15234C5.28906 7.30469 5.01953 7.52148 4.78516 7.80273C4.29297 8.38867 4.04688 9.18555 4.04688 10.1934C4.04688 11.5059 4.43945 12.6719 5.22461 13.6914C5.45898 13.9961 5.71094 14.2539 5.98047 14.4648L9.9707 17.6641C11.5996 19.0234 12.4141 20.6406 12.4141 22.5156C12.4141 24.0625 11.8457 25.375 10.709 26.4531C9.60742 27.4844 8.32422 28 6.85938 28H4.38086C3.94727 28 3.57227 27.8477 3.25586 27.543C2.93945 27.2383 2.78125 26.9219 2.78125 26.5938C2.78125 26.2656 2.82227 26.0078 2.9043 25.8203C2.99805 25.6211 3.12109 25.4453 3.27344 25.293C3.58984 24.9766 3.95898 24.8184 4.38086 24.8184H5.85742C6.57227 24.8184 7.14648 24.6367 7.58008 24.2734C8.01367 23.8984 8.23047 23.459 8.23047 22.9551C8.23047 22.123 7.86133 21.373 7.12305 20.7051L4.11719 18.2441C2.6875 17.084 1.67969 15.9941 1.09375 14.9746C0.4375 13.8145 0.109375 12.3262 0.109375 10.5098C0.109375 8.38867 0.689453 6.73047 1.84961 5.53516C2.98633 4.35156 4.57422 3.75977 6.61328 3.75977C8.52344 3.75977 10.0234 4.24023 11.1133 5.20117C12.2031 6.15039 12.748 7.45703 12.748 9.12109C12.748 10.5273 12.4551 11.6875 11.8691 12.6016C11.2715 13.5391 10.4922 14.0078 9.53125 14.0078C8.95703 14.0078 8.51758 13.8672 8.21289 13.5859C7.70898 13.0938 7.45703 12.6191 7.45703 12.1621C7.45703 11.6934 7.5332 11.3477 7.68555 11.125C7.83789 10.9023 8.00781 10.6914 8.19531 10.4922ZM28.1289 24.8184C28.5742 24.8184 28.9492 24.9766 29.2539 25.293C29.5586 25.6094 29.7109 25.9902 29.7109 26.4355C29.7109 26.8691 29.5586 27.2383 29.2539 27.543C28.9492 27.8477 28.5742 28 28.1289 28H23.9805C22.5508 28 21.3262 27.4902 20.3066 26.4707C19.2871 25.4512 18.7773 24.2266 18.7773 22.7969V14.166C18.7773 12.5723 19.3164 11.3008 20.3945 10.3516C21.5195 9.39062 23.0664 8.91016 25.0352 8.91016C26.9805 8.91016 28.5156 9.39062 29.6406 10.3516C30.7305 11.3125 31.2754 12.5957 31.2754 14.2012V19.123C31.2754 19.709 31.1289 20.1484 30.8359 20.4414C30.332 20.9453 29.7812 21.1973 29.1836 21.1973H22.9434V22.7617C22.9434 23.3594 23.0898 23.7988 23.3828 24.0801C23.8984 24.5723 24.4434 24.8184 25.0176 24.8184H28.1289ZM27.1094 14.166C27.1094 13.5801 26.9629 13.1406 26.6699 12.8477C26.1543 12.332 25.6094 12.0742 25.0352 12.0742C24.4492 12.0742 24.0039 12.2266 23.6992 12.5312C23.1953 13.0352 22.9434 13.5801 22.9434 14.166V18.1211H27.1094V14.166ZM40.8203 27.5957C40.5273 27.877 40.252 28.0703 39.9941 28.1758C39.748 28.293 39.4785 28.3516 39.1855 28.3516C38.9043 28.3516 38.6348 28.2988 38.377 28.1934C38.1309 28.0879 37.9141 27.9414 37.7266 27.7539C37.3164 27.3438 37.1113 26.8574 37.1113 26.2949V11.0195C37.1113 10.4453 37.2578 10 37.5508 9.68359C38.0547 9.16797 38.5293 8.91016 38.9746 8.91016C39.4316 8.91016 39.7715 8.95703 39.9941 9.05078C40.2168 9.14453 40.4043 9.26172 40.5566 9.40234C40.7559 9.57812 40.9023 9.76563 40.9961 9.96484C41.1016 10.1641 41.1836 10.3105 41.2422 10.4043C41.3125 10.498 41.418 10.5449 41.5586 10.5449C41.7109 10.5449 41.8398 10.498 41.9453 10.4043L42.2441 10.1055C43.0996 9.30859 43.9551 8.91016 44.8105 8.91016C46.3223 8.91016 47.5703 9.53125 48.5547 10.7734C48.6484 10.9023 48.7656 10.9668 48.9062 10.9668C49.1523 10.9668 49.3984 10.7793 49.6445 10.4043C49.9023 10.0176 50.3125 9.67187 50.875 9.36719C51.4375 9.0625 52.0938 8.91016 52.8438 8.91016C53.5938 8.91016 54.2734 9.05078 54.8828 9.33203C55.5039 9.60156 56.043 9.97656 56.5 10.457C57.4609 11.4648 57.9414 12.6836 57.9414 14.1133V26.2949C57.9414 27.1855 57.5195 27.8125 56.6758 28.1758C56.418 28.293 56.1426 28.3516 55.8496 28.3516C55.5684 28.3516 55.2988 28.2988 55.041 28.1934C54.7949 28.0879 54.5781 27.9414 54.3906 27.7539C53.9922 27.332 53.793 26.8457 53.793 26.2949V14.166C53.793 13.5801 53.6465 13.1406 53.3535 12.8477C52.8379 12.332 52.3633 12.0742 51.9297 12.0742C51.4961 12.0742 51.1562 12.1328 50.9102 12.25C50.6641 12.3555 50.4414 12.5078 50.2422 12.707C49.832 13.1172 49.627 13.5918 49.627 14.1309V26.2949C49.627 27.1855 49.2109 27.8125 48.3789 28.1758C48.1211 28.293 47.8457 28.3516 47.5527 28.3516C47.2715 28.3516 47.002 28.2988 46.7441 28.1934C46.4863 28.0879 46.2637 27.9414 46.0762 27.7539C45.666 27.3438 45.4609 26.8574 45.4609 26.2949V14.166C45.4609 13.5801 45.3145 13.1406 45.0215 12.8477C44.5059 12.332 43.9668 12.0742 43.4043 12.0742C42.4668 12.0742 41.8164 12.4375 41.4531 13.1641C41.3359 13.3984 41.2773 13.6621 41.2773 13.9551V26.2949C41.2773 26.8691 41.125 27.3027 40.8203 27.5957Z" fill="white"/>
<path d="M65.0957 28C64.6621 28 64.3281 27.8887 64.0938 27.666C63.6953 27.291 63.4961 26.9395 63.4961 26.6113C63.4961 26.2715 63.5371 26.0078 63.6191 25.8203C63.7012 25.6211 63.8125 25.4453 63.9531 25.293C64.2812 24.9766 64.6621 24.8184 65.0957 24.8184H66.8887V11.2129C66.8887 10.0996 67.3867 9.07422 68.3828 8.13672C68.4883 8.04297 68.541 7.94336 68.541 7.83789C68.541 7.7207 68.5 7.60352 68.418 7.48633C68.3477 7.35742 68.2012 7.29297 67.9785 7.29297H66.0098C65.4824 7.29297 65.084 7.44531 64.8145 7.75C64.3457 8.27734 64.1113 8.81641 64.1113 9.36719V10.3691C64.1113 11.2832 63.6836 11.916 62.8281 12.2676C62.5703 12.373 62.2949 12.4258 62.002 12.4258C61.7207 12.4258 61.4512 12.373 61.1934 12.2676C60.9473 12.1621 60.7305 12.0156 60.543 11.8281C60.1445 11.4297 59.9453 10.9434 59.9453 10.3691V9.31445C59.9453 7.88477 60.4551 6.66016 61.4746 5.64062C62.4941 4.62109 63.7188 4.11133 65.1484 4.11133H73.2871C76.0527 4.11133 77.9102 5.06055 78.8594 6.95898C79.1875 7.61523 79.3516 8.40039 79.3516 9.31445V13.0234C79.3516 14.957 78.4023 16.2812 76.5039 16.9961C77.2891 17.4531 77.834 17.9219 78.1387 18.4023C78.6777 19.2344 78.9473 20.207 78.9473 21.3203V22.7969C78.9473 24.2383 78.4434 25.4629 77.4355 26.4707C76.416 27.4902 75.1914 28 73.7617 28H65.0957ZM71.0547 15.3086H73.1465C74.0371 15.3086 74.6641 14.8867 75.0273 14.043C75.1445 13.7969 75.2031 13.5215 75.2031 13.2168V9.34961C75.2031 8.79883 75.0566 8.37109 74.7637 8.06641C74.2715 7.55078 73.791 7.29297 73.3223 7.29297C72.8652 7.29297 72.5078 7.35156 72.25 7.46875C71.9922 7.57422 71.7754 7.72656 71.5996 7.92578C71.2363 8.32422 71.0547 8.79883 71.0547 9.34961V15.3086ZM72.707 24.8184C73.2812 24.8184 73.7148 24.6719 74.0078 24.3789C74.5352 23.8516 74.7988 23.3008 74.7988 22.7266V20.5469C74.7988 19.9727 74.6523 19.5391 74.3594 19.2461C73.8438 18.7305 73.293 18.4727 72.707 18.4727H71.0547V24.8184H72.707ZM86.2773 10.8613C86.2773 10.1582 86.6055 9.66602 87.2617 9.38477C87.4492 9.30273 87.6543 9.26172 87.877 9.26172H92.0254C93.4551 9.26172 94.6797 9.77148 95.6992 10.791C96.7188 11.8105 97.2285 13.0352 97.2285 14.4648V26.2949C97.2285 27.1855 96.8066 27.8125 95.9629 28.1758C95.7051 28.293 95.4238 28.3516 95.1191 28.3516C94.8145 28.3516 94.5508 28.2988 94.3281 28.1934C94.1172 28.0996 93.9355 27.9883 93.7832 27.8594C93.6543 27.7422 93.5254 27.5781 93.3965 27.3672C93.2676 27.1445 93.168 26.9805 93.0977 26.875C93.0273 26.7695 92.916 26.7168 92.7637 26.7168C92.6113 26.7168 92.4883 26.7695 92.3945 26.875L92.1133 27.1738C91.3281 27.959 90.4082 28.3516 89.3535 28.3516C88.0996 28.3516 87.0156 27.8359 86.1016 26.8047C85.1875 25.7852 84.7305 24.5664 84.7305 23.1484V20.7227C84.7305 19.293 85.2402 18.0684 86.2598 17.0488C87.2676 16.041 88.4922 15.5371 89.9336 15.5371H93.0625V14.5176C93.0625 13.9316 92.916 13.4922 92.623 13.1992C92.1074 12.6836 91.5625 12.4258 90.9883 12.4258H87.877C87.4434 12.4258 87.1094 12.3145 86.875 12.0918C86.4766 11.7168 86.2773 11.3066 86.2773 10.8613ZM88.8965 23.1133C88.8965 23.7109 89.043 24.1504 89.3359 24.4316C89.8516 24.9238 90.3262 25.1699 90.7598 25.1699C91.1934 25.1699 91.5332 25.1289 91.7793 25.0469C92.0371 24.9648 92.2598 24.8477 92.4473 24.6953C92.8574 24.3672 93.0625 23.9336 93.0625 23.3945V18.6836H90.9883C90.3906 18.6836 89.9453 18.8301 89.6523 19.123C89.1484 19.627 88.8965 20.1719 88.8965 20.7578V23.1133ZM106.439 27.5957C106.146 27.877 105.871 28.0703 105.613 28.1758C105.367 28.293 105.098 28.3516 104.805 28.3516C104.523 28.3516 104.254 28.2988 103.996 28.1934C103.75 28.0879 103.533 27.9414 103.346 27.7539C102.936 27.3438 102.73 26.8574 102.73 26.2949V11.0195C102.73 10.4453 102.883 10 103.188 9.68359C103.68 9.16797 104.148 8.91016 104.594 8.91016C105.051 8.91016 105.385 8.96289 105.596 9.06836C105.818 9.16211 106.006 9.27344 106.158 9.40234C106.381 9.58984 106.533 9.7832 106.615 9.98242C106.709 10.1699 106.791 10.3105 106.861 10.4043C106.932 10.498 107.037 10.5449 107.178 10.5449C107.33 10.5449 107.453 10.498 107.547 10.4043C107.641 10.2988 107.793 10.1406 108.004 9.92969C108.707 9.25 109.475 8.91016 110.307 8.91016C111.15 8.91016 111.854 9.05078 112.416 9.33203C112.979 9.60156 113.465 9.97656 113.875 10.457C114.777 11.4766 115.229 12.6953 115.229 14.1133V26.2949C115.229 27.1855 114.812 27.8125 113.98 28.1758C113.723 28.293 113.447 28.3516 113.154 28.3516C112.873 28.3516 112.604 28.2988 112.346 28.1934C112.088 28.0879 111.865 27.9414 111.678 27.7539C111.268 27.3438 111.062 26.8574 111.062 26.2949V14.166C111.062 13.5918 110.922 13.1523 110.641 12.8477C110.137 12.332 109.598 12.0742 109.023 12.0742C108.086 12.0742 107.436 12.4375 107.072 13.1641C106.955 13.3984 106.896 13.6621 106.896 13.9551V26.2949C106.896 26.8691 106.744 27.3027 106.439 27.5957ZM133.229 26.2949C133.229 27.1855 132.807 27.8125 131.963 28.1758C131.705 28.293 131.424 28.3516 131.119 28.3516C130.814 28.3516 130.551 28.3047 130.328 28.2109C130.105 28.1172 129.918 28.0117 129.766 27.8945C129.555 27.707 129.402 27.5254 129.309 27.3496C129.227 27.1738 129.15 27.0273 129.08 26.9102C129.01 26.7812 128.904 26.7168 128.764 26.7168C128.623 26.7168 128.5 26.7695 128.395 26.875L128.078 27.1738C127.316 27.959 126.408 28.3516 125.354 28.3516C124.088 28.3516 122.998 27.8359 122.084 26.8047C121.182 25.7969 120.73 24.5781 120.73 23.1484V14.4648C120.73 13.0352 121.24 11.8105 122.26 10.791C123.279 9.77148 124.504 9.26172 125.934 9.26172H129.062V3.03906C129.062 2.45313 129.209 2.01367 129.502 1.7207C130.006 1.2168 130.551 0.964844 131.137 0.964844C131.734 0.964844 132.18 1.11133 132.473 1.4043C132.977 1.9082 133.229 2.45313 133.229 3.03906V26.2949ZM124.896 23.3066C124.896 23.9043 125.09 24.3672 125.477 24.6953C125.875 25.0117 126.291 25.1699 126.725 25.1699C127.17 25.1699 127.516 25.1289 127.762 25.0469C128.02 24.9648 128.242 24.8477 128.43 24.6953C128.852 24.3672 129.062 23.9336 129.062 23.3945V12.4258H126.971C126.396 12.4258 125.957 12.5781 125.652 12.8828C125.148 13.3867 124.896 13.9316 124.896 14.5176V23.3066ZM140.277 10.8613C140.277 10.1582 140.605 9.66602 141.262 9.38477C141.449 9.30273 141.654 9.26172 141.877 9.26172H146.025C147.455 9.26172 148.68 9.77148 149.699 10.791C150.719 11.8105 151.229 13.0352 151.229 14.4648V26.2949C151.229 27.1855 150.807 27.8125 149.963 28.1758C149.705 28.293 149.424 28.3516 149.119 28.3516C148.814 28.3516 148.551 28.2988 148.328 28.1934C148.117 28.0996 147.936 27.9883 147.783 27.8594C147.654 27.7422 147.525 27.5781 147.396 27.3672C147.268 27.1445 147.168 26.9805 147.098 26.875C147.027 26.7695 146.916 26.7168 146.764 26.7168C146.611 26.7168 146.488 26.7695 146.395 26.875L146.113 27.1738C145.328 27.959 144.408 28.3516 143.354 28.3516C142.1 28.3516 141.016 27.8359 140.102 26.8047C139.188 25.7852 138.73 24.5664 138.73 23.1484V20.7227C138.73 19.293 139.24 18.0684 140.26 17.0488C141.268 16.041 142.492 15.5371 143.934 15.5371H147.062V14.5176C147.062 13.9316 146.916 13.4922 146.623 13.1992C146.107 12.6836 145.562 12.4258 144.988 12.4258H141.877C141.443 12.4258 141.109 12.3145 140.875 12.0918C140.477 11.7168 140.277 11.3066 140.277 10.8613ZM142.896 23.1133C142.896 23.7109 143.043 24.1504 143.336 24.4316C143.852 24.9238 144.326 25.1699 144.76 25.1699C145.193 25.1699 145.533 25.1289 145.779 25.0469C146.037 24.9648 146.26 24.8477 146.447 24.6953C146.857 24.3672 147.062 23.9336 147.062 23.3945V18.6836H144.988C144.391 18.6836 143.945 18.8301 143.652 19.123C143.148 19.627 142.896 20.1719 142.896 20.7578V23.1133Z" fill="#C17E03"/>
</svg>
