<svg width="48" height="48" viewBox="0 0 48 48" fill="none" xmlns="http://www.w3.org/2000/svg">
<path d="M21.1875 11.3438H16.9688V22.5938H21.1875V11.3438Z" fill="#C17E03"/>
<path d="M38.0625 16.9688C37.0744 16.9688 23.3667 16.9688 24 16.9688V18.375C24 20.6626 25.8702 22.5938 28.2188 22.5938H32.4375V25.4063H31.0312C28.7436 25.4063 26.8125 27.2764 26.8125 29.625V32.4375H24V29.625C24 28.0279 24.5524 26.5806 25.4383 25.4063H14.1562C14.1562 25.0916 14.1562 1.55372 14.1562 2.8125H9.9375C9.9375 13.7763 9.9375 21.8059 9.9375 32.775L12.75 38.4938V39.5625H35.25V38.4938L38.0625 32.775C38.0625 32.2793 38.0625 16.5517 38.0625 16.9688Z" fill="#C17E03"/>
<path d="M35.25 0H31.0312V14.1562H35.25V0Z" fill="#C17E03"/>
<path d="M28.2188 11.3438H24V14.1562H28.2188V11.3438Z" fill="#C17E03"/>
<path d="M26.8125 42.375H21.1875V48H26.8125V42.375Z" fill="#C17E03"/>
<path d="M18.375 48V42.375C15.3175 42.375 13.0072 42.375 9.9375 42.375V45.1875H12.75V48H18.375Z" fill="#C17E03"/>
<path d="M29.625 48H35.25V45.1875H38.0625V42.375C35.2363 42.375 29.2362 42.375 29.625 42.375V48Z" fill="#C17E03"/>
</svg>
